<svg width="145" height="40" viewBox="0 0 145 40" fill="none" xmlns="http://www.w3.org/2000/svg">
<rect width="145" height="40" rx="20" fill="#23C861"/>
<path d="M22.208 20.7188V23.4258H24.1768C24.3135 23.4258 24.4115 23.4531 24.4707 23.5078C24.5299 23.5579 24.5596 23.6263 24.5596 23.7129C24.5596 23.7949 24.5299 23.8633 24.4707 23.918C24.4115 23.9727 24.3135 24 24.1768 24H20.8613C20.7246 24 20.6266 23.9727 20.5674 23.918C20.5081 23.8633 20.4785 23.7949 20.4785 23.7129C20.4785 23.6263 20.5081 23.5579 20.5674 23.5078C20.6266 23.4531 20.7246 23.4258 20.8613 23.4258H21.6338V16.5762H20.8613C20.7246 16.5762 20.6266 16.5511 20.5674 16.501C20.5081 16.4463 20.4785 16.3757 20.4785 16.2891C20.4785 16.2025 20.5081 16.1341 20.5674 16.084C20.6266 16.0293 20.7246 16.002 20.8613 16.002H24.1973C24.9857 16.002 25.6283 16.2344 26.125 16.6992C26.6263 17.1641 26.877 17.7087 26.877 18.333C26.877 18.7021 26.7949 19.0348 26.6309 19.3311C26.4714 19.6273 26.2777 19.8597 26.0498 20.0283C25.708 20.2835 25.3548 20.4704 24.9902 20.5889C24.7259 20.6755 24.3978 20.7188 24.0059 20.7188H22.208ZM22.208 20.1445H24.04C24.4639 20.1445 24.8604 20.0511 25.2295 19.8643C25.6032 19.6729 25.8743 19.4404 26.043 19.167C26.2161 18.8936 26.3027 18.6156 26.3027 18.333C26.3027 17.8818 26.109 17.4762 25.7217 17.1162C25.3343 16.7562 24.8444 16.5762 24.252 16.5762H22.208V20.1445ZM32.5768 18.0801V19.5293C33.3242 18.8548 33.8824 18.4219 34.2516 18.2305C34.6253 18.0345 34.9693 17.9365 35.2838 17.9365C35.6256 17.9365 35.9423 18.0527 36.234 18.2852C36.5302 18.513 36.6783 18.6862 36.6783 18.8047C36.6783 18.8913 36.6487 18.9642 36.5895 19.0234C36.5348 19.0781 36.4641 19.1055 36.3775 19.1055C36.332 19.1055 36.2932 19.0986 36.2613 19.085C36.2294 19.0667 36.1702 19.0143 36.0836 18.9277C35.9241 18.7682 35.7851 18.6589 35.6666 18.5996C35.5481 18.5404 35.4319 18.5107 35.318 18.5107C35.0673 18.5107 34.7643 18.611 34.4088 18.8115C34.0579 19.012 33.4472 19.502 32.5768 20.2812V23.4258H35.1197C35.261 23.4258 35.3613 23.4531 35.4205 23.5078C35.4798 23.5579 35.5094 23.6263 35.5094 23.7129C35.5094 23.7949 35.4798 23.8633 35.4205 23.918C35.3613 23.9727 35.261 24 35.1197 24H30.6148C30.4781 24 30.3801 23.9749 30.3209 23.9248C30.2617 23.8701 30.232 23.8018 30.232 23.7197C30.232 23.6423 30.2594 23.5785 30.3141 23.5283C30.3733 23.4736 30.4736 23.4463 30.6148 23.4463H32.0025V18.6611H30.943C30.8062 18.6611 30.7083 18.6338 30.649 18.5791C30.5898 18.5244 30.5602 18.4538 30.5602 18.3672C30.5602 18.2852 30.5875 18.2168 30.6422 18.1621C30.7014 18.1074 30.8017 18.0801 30.943 18.0801H32.5768ZM46.1789 21.1768H40.3273C40.4276 21.9196 40.7375 22.5189 41.257 22.9746C41.7811 23.4258 42.4283 23.6514 43.1984 23.6514C43.6268 23.6514 44.0757 23.5807 44.5451 23.4395C45.0145 23.2982 45.3973 23.1113 45.6936 22.8789C45.7801 22.8105 45.8553 22.7764 45.9191 22.7764C45.9921 22.7764 46.0559 22.806 46.1105 22.8652C46.1652 22.9199 46.1926 22.986 46.1926 23.0635C46.1926 23.141 46.1561 23.2161 46.0832 23.2891C45.8645 23.5169 45.4748 23.7311 44.9143 23.9316C44.3583 24.1276 43.7863 24.2256 43.1984 24.2256C42.2141 24.2256 41.3915 23.9043 40.7307 23.2617C40.0744 22.6146 39.7463 21.833 39.7463 20.917C39.7463 20.083 40.0539 19.3675 40.6691 18.7705C41.2889 18.1735 42.0546 17.875 42.966 17.875C43.9048 17.875 44.6773 18.1826 45.2834 18.7979C45.8895 19.4085 46.188 20.2015 46.1789 21.1768ZM45.5979 20.5957C45.4839 19.9622 45.1831 19.4473 44.6955 19.0508C44.2124 18.6543 43.6359 18.4561 42.966 18.4561C42.2961 18.4561 41.7196 18.652 41.2365 19.0439C40.7534 19.4359 40.4527 19.9531 40.3342 20.5957H45.5979ZM55.6932 15.4209V23.4258H56.4588C56.6001 23.4258 56.7003 23.4531 56.7596 23.5078C56.8188 23.5579 56.8484 23.6263 56.8484 23.7129C56.8484 23.7949 56.8188 23.8633 56.7596 23.918C56.7003 23.9727 56.6001 24 56.4588 24H55.1121V22.8584C54.4467 23.7699 53.6014 24.2256 52.576 24.2256C52.0564 24.2256 51.5574 24.0889 51.0789 23.8154C50.6049 23.5374 50.229 23.1432 49.951 22.6328C49.6775 22.1224 49.5408 21.596 49.5408 21.0537C49.5408 20.5068 49.6775 19.9805 49.951 19.4746C50.229 18.9642 50.6049 18.57 51.0789 18.292C51.5574 18.014 52.0587 17.875 52.5828 17.875C53.5854 17.875 54.4285 18.3307 55.1121 19.2422V16.002H54.3465C54.2052 16.002 54.1049 15.9746 54.0457 15.9199C53.9865 15.8652 53.9568 15.7946 53.9568 15.708C53.9568 15.626 53.9865 15.5576 54.0457 15.5029C54.1049 15.4482 54.2052 15.4209 54.3465 15.4209H55.6932ZM55.1121 21.0537C55.1121 20.3245 54.866 19.7093 54.3738 19.208C53.8816 18.7067 53.296 18.4561 52.617 18.4561C51.9334 18.4561 51.3455 18.7067 50.8533 19.208C50.3611 19.7093 50.115 20.3245 50.115 21.0537C50.115 21.7783 50.3611 22.3936 50.8533 22.8994C51.3455 23.4007 51.9334 23.6514 52.617 23.6514C53.296 23.6514 53.8816 23.4007 54.3738 22.8994C54.866 22.3936 55.1121 21.7783 55.1121 21.0537ZM62.9721 15.1338V16.6172H62.1244V15.1338H62.9721ZM62.9926 18.0801V23.4258H65.2484C65.3897 23.4258 65.49 23.4531 65.5492 23.5078C65.6085 23.5579 65.6381 23.6263 65.6381 23.7129C65.6381 23.7949 65.6085 23.8633 65.5492 23.918C65.49 23.9727 65.3897 24 65.2484 24H60.1625C60.0258 24 59.9278 23.9727 59.8686 23.918C59.8093 23.8633 59.7797 23.7949 59.7797 23.7129C59.7797 23.6263 59.8093 23.5579 59.8686 23.5078C59.9278 23.4531 60.0258 23.4258 60.1625 23.4258H62.4184V18.6611H60.7436C60.6068 18.6611 60.5066 18.6338 60.4428 18.5791C60.3835 18.5244 60.3539 18.4561 60.3539 18.374C60.3539 18.2874 60.3835 18.2168 60.4428 18.1621C60.502 18.1074 60.6023 18.0801 60.7436 18.0801H62.9926ZM74.8926 18.6611V18.4697C74.8926 18.3285 74.9199 18.2282 74.9746 18.1689C75.0293 18.1097 75.0977 18.0801 75.1797 18.0801C75.2663 18.0801 75.3369 18.1097 75.3916 18.1689C75.4463 18.2282 75.4736 18.3285 75.4736 18.4697V19.7686C75.4691 19.9098 75.4395 20.0101 75.3848 20.0693C75.3346 20.1286 75.2663 20.1582 75.1797 20.1582C75.1022 20.1582 75.0361 20.1331 74.9814 20.083C74.9313 20.0283 74.9017 19.9395 74.8926 19.8164C74.8652 19.4928 74.651 19.1852 74.25 18.8936C73.8535 18.6019 73.318 18.4561 72.6436 18.4561C71.7913 18.4561 71.1442 18.7227 70.7021 19.2559C70.2601 19.7891 70.0391 20.3997 70.0391 21.0879C70.0391 21.8307 70.2829 22.4437 70.7705 22.9268C71.2581 23.4098 71.8893 23.6514 72.6641 23.6514C73.1107 23.6514 73.5641 23.5693 74.0244 23.4053C74.4893 23.2412 74.9085 22.9769 75.2822 22.6123C75.3779 22.5212 75.4622 22.4756 75.5352 22.4756C75.6126 22.4756 75.6764 22.5029 75.7266 22.5576C75.7812 22.6077 75.8086 22.6715 75.8086 22.749C75.8086 22.945 75.5785 23.1934 75.1182 23.4941C74.3753 23.9818 73.5482 24.2256 72.6367 24.2256C71.7116 24.2256 70.9505 23.9316 70.3535 23.3438C69.7611 22.7513 69.4648 22.0016 69.4648 21.0947C69.4648 20.1696 69.7679 19.4017 70.374 18.791C70.9847 18.1803 71.7526 17.875 72.6777 17.875C73.5573 17.875 74.2956 18.137 74.8926 18.6611ZM81.1256 18.0801H84.2428C84.3795 18.0801 84.4775 18.1074 84.5367 18.1621C84.596 18.2168 84.6256 18.2874 84.6256 18.374C84.6256 18.4561 84.596 18.5244 84.5367 18.5791C84.4775 18.6338 84.3795 18.6611 84.2428 18.6611H81.1256V22.4824C81.1256 22.8151 81.2577 23.0931 81.5221 23.3164C81.791 23.5397 82.1829 23.6514 82.6979 23.6514C83.0852 23.6514 83.5045 23.5944 83.9557 23.4805C84.4068 23.362 84.7577 23.2298 85.0084 23.084C85.0995 23.0247 85.1747 22.9951 85.234 22.9951C85.3069 22.9951 85.3707 23.0247 85.4254 23.084C85.4801 23.1387 85.5074 23.2048 85.5074 23.2822C85.5074 23.3506 85.4778 23.4144 85.4186 23.4736C85.2727 23.624 84.9173 23.7881 84.3521 23.9658C83.7916 24.139 83.2538 24.2256 82.7389 24.2256C82.0689 24.2256 81.5357 24.0684 81.1393 23.7539C80.7428 23.4395 80.5445 23.0156 80.5445 22.4824V18.6611H79.485C79.3482 18.6611 79.2503 18.6338 79.191 18.5791C79.1318 18.5244 79.1021 18.4538 79.1021 18.3672C79.1021 18.2852 79.1318 18.2168 79.191 18.1621C79.2503 18.1074 79.3482 18.0801 79.485 18.0801H80.5445V16.3848C80.5445 16.248 80.5719 16.1501 80.6266 16.0908C80.6813 16.0316 80.7496 16.002 80.8316 16.002C80.9182 16.002 80.9889 16.0316 81.0436 16.0908C81.0982 16.1501 81.1256 16.248 81.1256 16.3848V18.0801ZM92.3967 15.1338V16.6172H91.549V15.1338H92.3967ZM92.4172 18.0801V23.4258H94.673C94.8143 23.4258 94.9146 23.4531 94.9738 23.5078C95.0331 23.5579 95.0627 23.6263 95.0627 23.7129C95.0627 23.7949 95.0331 23.8633 94.9738 23.918C94.9146 23.9727 94.8143 24 94.673 24H89.5871C89.4504 24 89.3524 23.9727 89.2932 23.918C89.2339 23.8633 89.2043 23.7949 89.2043 23.7129C89.2043 23.6263 89.2339 23.5579 89.2932 23.5078C89.3524 23.4531 89.4504 23.4258 89.5871 23.4258H91.843V18.6611H90.1682C90.0314 18.6611 89.9312 18.6338 89.8674 18.5791C89.8081 18.5244 89.7785 18.4561 89.7785 18.374C89.7785 18.2874 89.8081 18.2168 89.8674 18.1621C89.9266 18.1074 90.0269 18.0801 90.1682 18.0801H92.4172ZM105.131 21.0537C105.131 21.9287 104.816 22.6761 104.187 23.2959C103.563 23.9157 102.809 24.2256 101.925 24.2256C101.031 24.2256 100.273 23.9157 99.6482 23.2959C99.0239 22.6715 98.7117 21.9242 98.7117 21.0537C98.7117 20.1787 99.0239 19.4313 99.6482 18.8115C100.273 18.1872 101.031 17.875 101.925 17.875C102.809 17.875 103.563 18.1849 104.187 18.8047C104.816 19.4245 105.131 20.1742 105.131 21.0537ZM104.55 21.0537C104.55 20.3337 104.292 19.7207 103.777 19.2148C103.267 18.709 102.647 18.4561 101.918 18.4561C101.189 18.4561 100.567 18.7113 100.052 19.2217C99.5411 19.7275 99.2859 20.3382 99.2859 21.0537C99.2859 21.7646 99.5411 22.3753 100.052 22.8857C100.567 23.3962 101.189 23.6514 101.918 23.6514C102.647 23.6514 103.267 23.3984 103.777 22.8926C104.292 22.3822 104.55 21.7692 104.55 21.0537ZM109.873 18.0801V18.9482C110.274 18.5426 110.637 18.2624 110.96 18.1074C111.284 17.9525 111.649 17.875 112.054 17.875C112.492 17.875 112.89 17.9684 113.25 18.1553C113.506 18.292 113.736 18.5199 113.941 18.8389C114.15 19.1533 114.255 19.4769 114.255 19.8096V23.4258H114.741C114.877 23.4258 114.975 23.4531 115.035 23.5078C115.094 23.5579 115.123 23.6263 115.123 23.7129C115.123 23.7949 115.094 23.8633 115.035 23.918C114.975 23.9727 114.877 24 114.741 24H113.203C113.061 24 112.961 23.9727 112.902 23.918C112.843 23.8633 112.813 23.7949 112.813 23.7129C112.813 23.6263 112.843 23.5579 112.902 23.5078C112.961 23.4531 113.061 23.4258 113.203 23.4258H113.681V19.9053C113.681 19.4997 113.533 19.1579 113.237 18.8799C112.94 18.5973 112.544 18.4561 112.047 18.4561C111.669 18.4561 111.341 18.5335 111.063 18.6885C110.785 18.8389 110.388 19.2171 109.873 19.8232V23.4258H110.523C110.66 23.4258 110.758 23.4531 110.817 23.5078C110.876 23.5579 110.906 23.6263 110.906 23.7129C110.906 23.7949 110.876 23.8633 110.817 23.918C110.758 23.9727 110.66 24 110.523 24H108.65C108.513 24 108.415 23.9727 108.356 23.918C108.297 23.8633 108.267 23.7949 108.267 23.7129C108.267 23.6263 108.297 23.5579 108.356 23.5078C108.415 23.4531 108.513 23.4258 108.65 23.4258H109.299V18.6611H108.814C108.677 18.6611 108.579 18.6338 108.52 18.5791C108.461 18.5244 108.431 18.4538 108.431 18.3672C108.431 18.2852 108.461 18.2168 108.52 18.1621C108.579 18.1074 108.677 18.0801 108.814 18.0801H109.873ZM123.435 18.4561C123.435 18.3239 123.462 18.2282 123.517 18.1689C123.571 18.1097 123.64 18.0801 123.722 18.0801C123.808 18.0801 123.879 18.1097 123.934 18.1689C123.988 18.2282 124.016 18.3285 124.016 18.4697V19.4541C124.016 19.5908 123.988 19.6888 123.934 19.748C123.879 19.8073 123.808 19.8369 123.722 19.8369C123.644 19.8369 123.578 19.8118 123.523 19.7617C123.473 19.7116 123.444 19.6296 123.435 19.5156C123.407 19.2422 123.266 19.0166 123.011 18.8389C122.637 18.5837 122.143 18.4561 121.527 18.4561C120.885 18.4561 120.386 18.5859 120.03 18.8457C119.761 19.0417 119.627 19.2604 119.627 19.502C119.627 19.7754 119.786 20.0033 120.105 20.1855C120.324 20.3132 120.739 20.4111 121.35 20.4795C122.147 20.5661 122.701 20.6641 123.011 20.7734C123.453 20.9329 123.781 21.154 123.995 21.4365C124.214 21.7191 124.323 22.0244 124.323 22.3525C124.323 22.8402 124.089 23.2754 123.619 23.6582C123.15 24.0365 122.462 24.2256 121.555 24.2256C120.648 24.2256 119.905 23.9954 119.326 23.5352C119.326 23.6901 119.317 23.7904 119.299 23.8359C119.281 23.8815 119.246 23.9202 119.196 23.9521C119.151 23.984 119.098 24 119.039 24C118.957 24 118.889 23.9704 118.834 23.9111C118.779 23.8519 118.752 23.7539 118.752 23.6172V22.4346C118.752 22.2979 118.777 22.1999 118.827 22.1406C118.882 22.0814 118.952 22.0518 119.039 22.0518C119.121 22.0518 119.189 22.0814 119.244 22.1406C119.303 22.1953 119.333 22.2705 119.333 22.3662C119.333 22.5758 119.385 22.7513 119.49 22.8926C119.65 23.1113 119.903 23.2936 120.249 23.4395C120.6 23.5807 121.028 23.6514 121.534 23.6514C122.282 23.6514 122.838 23.5124 123.202 23.2344C123.567 22.9564 123.749 22.6624 123.749 22.3525C123.749 21.9971 123.564 21.7122 123.195 21.498C122.822 21.2839 122.277 21.1403 121.562 21.0674C120.851 20.9945 120.34 20.8988 120.03 20.7803C119.72 20.6618 119.479 20.484 119.306 20.2471C119.132 20.0101 119.046 19.7549 119.046 19.4814C119.046 18.9893 119.287 18.5996 119.771 18.3125C120.254 18.0208 120.83 17.875 121.5 17.875C122.293 17.875 122.938 18.0687 123.435 18.4561Z" fill="white"/>
</svg>
